<svg xmlns="http://www.w3.org/2000/svg" viewBox="0 0 1080 1080"><defs><style>.cls-1,.cls-2{fill:#fff;}.cls-1{opacity:0.05;}</style></defs><g id="Layer_2" data-name="Layer 2"><polygon class="cls-1" points="528.93 1011.6 125.53 786.69 132.45 324.88 542.77 87.98 946.17 312.89 939.25 774.7 528.93 1011.6"/><polygon class="cls-2" points="118.59 291.06 183.09 327.71 529.04 136.43 529.04 59.79 118.59 291.06"/><polygon class="cls-2" points="553.58 64.49 553.58 133.4 897.83 327.71 954.05 295.71 553.58 64.49"/><polygon class="cls-2" points="971.75 320.38 908.71 348.23 908.71 746.5 971.75 778.77 971.75 320.38"/><polygon class="cls-2" points="891.12 763.09 954.05 798.94 553.58 1020.79 553.58 951.96 891.12 763.09"/><polygon class="cls-2" points="529.04 1020.79 529.04 952.91 186.91 763.09 125.92 798.27 529.04 1020.79"/><polygon class="cls-2" points="108.25 778.77 165.5 749.89 165.5 350.2 108.25 320.38 108.25 778.77"/><polygon class="cls-2" points="489.19 217.25 489.19 404.68 850.78 457.75 850.78 343.3 489.19 217.25"/><path class="cls-2" d="M847.48,481.89V594L684.93,617s52.84-81.39-6.64-155.91Z"/><polygon class="cls-2" points="847.48 616.99 489.24 666.99 489.24 883.87 847.48 736.41 847.48 616.99"/><polygon class="cls-2" points="230.46 613.76 462.01 665.33 462.01 835.56 234.15 732.68 230.46 613.76"/><polygon class="cls-2" points="233.76 354.49 233.76 468.84 465.31 415.61 465.31 246.05 233.76 354.49"/><path class="cls-2" d="M523,441.7l-33.85-3.85s-178.65,44-250.31,51.21l-1.43,97.45,251.74,57,39.17-5.42c-7.66-8.52-40.21-46.6-39.17-104.05C490.07,485.08,514.82,451.86,523,441.7Z"/><ellipse class="cls-2" cx="603.64" cy="540.69" rx="84.59" ry="99.52"/></g></svg>