<svg xmlns="http://www.w3.org/2000/svg" viewBox="0 0 1920 1080"><defs><style>.cls-1{font-size:554.87px;font-family:MADETOMMY, MADE TOMMY;letter-spacing:0.05em;}.cls-2{letter-spacing:0.03em;}.cls-3{letter-spacing:0.02em;}.cls-4{letter-spacing:-0.01em;}.cls-5{letter-spacing:0.02em;}.cls-6{opacity:0.05;}</style></defs><g id="Layer_2" data-name="Layer 2"><text class="cls-1" transform="translate(890.84 521.07)">h<tspan class="cls-2" x="347.9" y="0">e</tspan><tspan x="684.72" y="0">x</tspan><tspan class="cls-3"><tspan x="0" y="388">b</tspan><tspan class="cls-4" x="357.89" y="388">o</tspan><tspan class="cls-5" x="684.7" y="388">x</tspan></tspan></text><polygon class="cls-6" points="406.21 917.89 83.28 737.85 88.82 368.16 417.29 178.51 740.23 358.56 734.68 728.25 406.21 917.89"/><polygon points="77.72 341.09 129.36 370.42 406.3 217.29 406.3 155.94 77.72 341.09"/><polygon points="425.94 159.71 425.94 214.87 701.52 370.42 746.53 344.8 425.94 159.71"/><polygon points="760.7 364.56 710.24 386.85 710.24 705.68 760.7 731.51 760.7 364.56"/><polygon points="696.16 718.95 746.53 747.65 425.94 925.25 425.94 870.15 696.16 718.95"/><polygon points="406.3 925.25 406.3 870.91 132.42 718.95 83.59 747.12 406.3 925.25"/><polygon points="69.45 731.51 115.28 708.39 115.28 388.43 69.45 364.56 69.45 731.51"/><polygon points="374.4 281.99 374.4 432.04 663.86 474.52 663.86 382.91 374.4 281.99"/><path d="M661.22,493.85v89.78L531.09,602s42.3-65.15-5.31-124.81Z"/><polygon points="661.22 601.99 374.44 642.02 374.44 815.64 661.22 697.6 661.22 601.99"/><polygon points="167.28 599.41 352.64 640.7 352.64 776.97 170.23 694.61 167.28 599.41"/><polygon points="169.92 391.86 169.92 483.4 355.28 440.79 355.28 305.05 169.92 391.86"/><path d="M401.5,461.67l-27.1-3.08s-143,35.26-200.38,41l-1.14,78L374.4,623.24l31.36-4.34c-6.13-6.82-32.19-37.31-31.36-83.3C375.1,496.4,394.92,469.81,401.5,461.67Z"/><ellipse cx="466.02" cy="540.92" rx="67.72" ry="79.67"/></g></svg>